<?xml version="1.0" standalone="no"?>
<!DOCTYPE svg PUBLIC "-//W3C//DTD SVG 20010904//EN"
 "http://www.w3.org/TR/2001/REC-SVG-20010904/DTD/svg10.dtd">
<svg version="1.0" xmlns="http://www.w3.org/2000/svg"
 width="339.000000pt" height="339.000000pt" viewBox="0 0 339.000000 339.000000"
 preserveAspectRatio="xMidYMid meet">
<metadata>
Created by potrace 1.14, written by Peter Selinger 2001-2017
</metadata>
<g transform="translate(0.000000,339.000000) scale(0.100000,-0.100000)"
fill="#000000" stroke="none">
<path d="M1654 2989 c-2 -4 -12 -6 -21 -5 -40 6 -193 -43 -221 -71 -7 -7 -17
-13 -21 -13 -15 0 -116 -94 -135 -124 -10 -17 -22 -33 -26 -36 -7 -5 -33 -49
-35 -60 -1 -3 -7 -17 -12 -31 -20 -47 -40 -124 -37 -141 1 -10 -1 -18 -4 -18
-4 0 -6 -49 -5 -110 1 -60 -1 -111 -6 -114 -4 -3 -61 -6 -127 -7 -109 -1 -170
-10 -229 -34 -62 -24 -115 -49 -115 -55 0 -3 -15 -14 -32 -25 -18 -10 -44 -32
-58 -49 -14 -16 -32 -37 -42 -45 -20 -20 -82 -136 -93 -176 -4 -16 -10 -39
-13 -50 -15 -56 -3 -251 17 -294 5 -9 20 -42 35 -73 15 -32 34 -62 43 -66 8
-5 13 -11 12 -13 -12 -14 129 -139 156 -139 8 0 15 -3 15 -8 0 -12 87 -44 160
-58 19 -4 85 -8 145 -9 61 -2 115 -3 121 -4 8 -1 12 -37 13 -114 0 -61 3 -123
6 -137 3 -14 8 -36 10 -50 2 -14 9 -38 16 -55 7 -16 14 -38 15 -47 6 -31 87
-139 140 -187 59 -54 142 -98 229 -121 57 -15 182 -19 235 -7 61 14 134 40
147 53 8 8 21 14 29 14 8 0 14 4 14 9 0 5 8 12 18 16 40 12 166 154 161 181 0
4 4 10 10 14 18 11 57 150 60 215 2 33 4 96 5 139 l1 79 120 3 c126 2 156 6
227 24 46 12 168 79 168 92 0 4 4 8 9 8 20 0 121 117 121 139 0 6 4 11 8 11 7
0 34 55 36 75 1 6 4 15 8 20 3 6 9 24 12 40 3 17 9 41 12 55 12 50 5 176 -13
220 -6 15 -11 30 -16 53 -6 24 -38 83 -67 122 -17 22 -38 52 -48 67 -9 16 -21
28 -26 28 -4 0 -22 11 -38 26 -36 30 -121 74 -143 74 -8 0 -15 4 -15 8 0 5 -6
9 -12 10 -25 2 -73 10 -93 15 -11 3 -73 6 -137 6 l-117 1 2 115 c1 63 0 115
-3 115 -3 0 -6 12 -6 28 -4 92 -65 220 -145 303 -47 48 -148 119 -170 119 -10
0 -20 4 -23 9 -7 10 -97 34 -138 37 -16 1 -29 2 -30 4 -8 5 -60 5 -64 -1z
m132 -219 c59 -19 104 -49 152 -99 65 -71 85 -132 90 -283 l4 -127 -274 -3
c-243 -3 -276 -5 -292 -20 -17 -17 -51 -89 -46 -98 16 -32 53 -75 67 -78 10
-2 234 -5 498 -6 264 -1 494 -6 510 -11 51 -14 126 -55 160 -88 36 -35 75 -99
75 -122 0 -8 4 -15 8 -15 18 0 22 -190 5 -212 -6 -7 -13 -24 -16 -38 -14 -58
-111 -152 -183 -177 -54 -19 -124 -26 -214 -22 -8 0 -20 0 -25 -1 -6 -1 -24
-2 -41 -1 l-31 1 -1 267 c0 185 -3 268 -11 271 -6 2 -9 7 -6 12 2 4 -4 15 -15
25 -23 21 -110 34 -110 16 0 -6 -5 -10 -11 -8 -7 1 -20 -12 -30 -28 -17 -28
-18 -68 -21 -525 -3 -490 -3 -496 -26 -552 -14 -35 -40 -73 -68 -100 -64 -62
-84 -79 -84 -72 0 4 -6 2 -13 -4 -7 -6 -24 -13 -37 -16 -14 -2 -43 -8 -65 -13
-66 -14 -124 -5 -200 32 -52 25 -128 89 -117 99 3 3 0 6 -6 6 -11 0 -48 72
-59 115 -8 31 -13 265 -5 266 4 1 124 2 267 3 232 1 263 4 287 20 29 19 36 32
42 84 3 25 -3 40 -26 65 -28 29 -36 32 -100 34 -39 1 -72 4 -75 7 -3 2 -15 1
-28 -4 -13 -5 -25 -7 -27 -5 -4 4 -85 6 -193 5 -33 -1 -64 0 -70 1 -5 1 -14 1
-19 0 -12 -3 -207 -3 -221 0 -5 1 -14 0 -20 -1 -18 -4 -242 1 -266 5 -49 9
-109 30 -109 37 0 4 -7 8 -15 8 -9 0 -18 7 -21 15 -4 8 -12 15 -20 15 -8 0
-14 4 -14 8 0 5 -14 22 -31 40 -17 17 -32 37 -33 44 -1 7 -8 23 -15 36 -40 73
-34 194 14 296 19 40 101 126 120 126 7 0 18 7 25 15 7 9 15 13 18 11 2 -3 13
-1 24 5 33 18 60 21 176 23 97 2 114 0 122 -14 5 -10 7 -20 4 -23 -4 -3 -6
-114 -6 -245 0 -277 6 -301 77 -315 47 -9 84 3 107 35 21 30 21 39 23 522 2
425 5 521 15 534 2 1 3 5 4 10 6 26 51 96 86 132 22 23 40 39 40 35 0 -3 12 2
28 13 62 45 184 59 268 32z"/>
<path d="M744 2717 c-40 -23 -71 -53 -80 -77 -11 -33 -12 -100 -2 -106 4 -3 8
-12 8 -20 0 -8 12 -26 27 -40 65 -61 181 -46 223 28 41 73 25 152 -42 199 -35
26 -102 33 -134 16z"/>
<path d="M2510 2712 c-52 -25 -83 -82 -81 -145 2 -35 46 -107 66 -107 8 0 15
-5 15 -11 0 -5 4 -8 9 -4 5 3 12 2 15 -3 7 -12 76 -5 106 10 42 21 87 79 75
98 -4 6 -2 10 3 10 6 0 5 18 -2 46 -13 51 -67 113 -101 116 -11 0 -32 2 -47 3
-15 1 -41 -5 -58 -13z"/>
<path d="M783 962 c-18 -2 -33 -8 -33 -13 0 -6 -4 -8 -9 -5 -12 8 -81 -61 -82
-82 -5 -68 -3 -90 7 -112 14 -27 67 -72 93 -78 100 -24 200 61 181 155 -14 74
-13 72 -68 111 -18 13 -36 20 -41 17 -5 -3 -11 -2 -13 2 -1 5 -18 7 -35 5z"/>
<path d="M2507 942 c-59 -39 -72 -62 -72 -127 0 -106 63 -156 179 -144 10 1
37 21 60 43 45 45 56 89 37 149 -27 81 -136 123 -204 79z"/>
</g>
</svg>
